# Blender 4.4.0
# www.blender.org
mtllib card.mtl
o Plane
v 0.465843 0.000000 -0.999994
v 0.715871 0.000000 -0.749965
v 0.521479 0.000000 -0.993725
v 0.574326 0.000000 -0.975233
v 0.621733 0.000000 -0.945445
v 0.661323 0.000000 -0.905855
v 0.691110 0.000000 -0.858449
v 0.709602 0.000000 -0.805602
v -0.465997 0.000000 -0.999994
v -0.715873 0.000000 -0.750118
v -0.521600 0.000000 -0.993729
v -0.574414 0.000000 -0.975248
v -0.621792 0.000000 -0.945479
v -0.661358 0.000000 -0.905913
v -0.691127 0.000000 -0.858535
v -0.709608 0.000000 -0.805721
v -0.715873 0.000000 0.749871
v -0.465737 0.000000 1.000006
v -0.709601 0.000000 0.805531
v -0.691102 0.000000 0.858401
v -0.661301 0.000000 0.905828
v -0.621694 0.000000 0.945435
v -0.574267 0.000000 0.975235
v -0.521398 0.000000 0.993735
v 0.465926 0.000000 1.000006
v 0.715871 0.000000 0.750061
v 0.521544 0.000000 0.993740
v 0.574373 0.000000 0.975254
v 0.621764 0.000000 0.945476
v 0.661341 0.000000 0.905899
v 0.691119 0.000000 0.858508
v 0.709604 0.000000 0.805679
vn -0.0000 1.0000 -0.0000
vt 0.136695 0.001955
vt 0.994954 0.096478
vt 0.863209 0.996090
vt 0.824701 0.999511
vt 0.175202 0.999511
vt 0.136695 0.996090
vt 0.100112 0.986315
vt 0.066739 0.971652
vt 0.039783 0.951613
vt 0.018604 0.928641
vt 0.006410 0.902248
vt 0.001276 0.873900
vt 0.001276 0.124145
vt 0.006410 0.096285
vt 0.018604 0.069892
vt 0.039783 0.046432
vt 0.066739 0.026393
vt 0.100112 0.011730
vt 0.175202 -0.000489
vt 0.824701 -0.000489
vt 0.863209 0.001955
vt 0.901074 0.011730
vt 0.933164 0.026393
vt 0.961403 0.046432
vt 0.981381 0.070112
vt 0.999130 0.124130
vt 0.999130 0.873944
vt 0.994954 0.901596
vt 0.981381 0.928605
vt 0.961403 0.951613
vt 0.933164 0.971652
vt 0.901074 0.986315
s 0
usemtl Material
f 24/1/1 32/2/1 3/3/1
f 3/3/1 1/4/1 9/5/1
f 9/5/1 11/6/1 12/7/1
f 12/7/1 13/8/1 14/9/1
f 14/9/1 15/10/1 16/11/1
f 16/11/1 10/12/1 17/13/1
f 17/13/1 19/14/1 20/15/1
f 20/15/1 21/16/1 22/17/1
f 22/17/1 23/18/1 24/1/1
f 24/1/1 18/19/1 25/20/1
f 25/20/1 27/21/1 28/22/1
f 28/22/1 29/23/1 30/24/1
f 30/24/1 31/25/1 32/2/1
f 32/2/1 26/26/1 2/27/1
f 2/27/1 8/28/1 7/29/1
f 7/29/1 6/30/1 5/31/1
f 5/31/1 4/32/1 3/3/1
f 3/3/1 9/5/1 12/7/1
f 12/7/1 14/9/1 16/11/1
f 16/11/1 17/13/1 20/15/1
f 20/15/1 22/17/1 24/1/1
f 24/1/1 25/20/1 28/22/1
f 28/22/1 30/24/1 32/2/1
f 32/2/1 2/27/1 7/29/1
f 7/29/1 5/31/1 3/3/1
f 3/3/1 12/7/1 16/11/1
f 16/11/1 20/15/1 24/1/1
f 24/1/1 28/22/1 32/2/1
f 32/2/1 7/29/1 3/3/1
f 3/3/1 16/11/1 24/1/1
