# Blender 4.4.0
# www.blender.org
mtllib card_side.mtl
o edge
v 0.465843 0.000000 0.999994
v 0.715871 0.000000 0.749965
v 0.521479 0.000000 0.993725
v 0.574326 0.000000 0.975233
v 0.621733 0.000000 0.945445
v 0.661323 0.000000 0.905855
v 0.691110 0.000000 0.858449
v 0.709602 0.000000 0.805602
v -0.465997 0.000000 0.999994
v -0.715873 0.000000 0.750118
v -0.521600 0.000000 0.993729
v -0.574414 0.000000 0.975248
v -0.621792 0.000000 0.945479
v -0.661358 0.000000 0.905913
v -0.691127 0.000000 0.858535
v -0.709608 0.000000 0.805721
v -0.715873 0.000000 -0.749871
v -0.465737 0.000000 -1.000006
v -0.709601 0.000000 -0.805531
v -0.691102 0.000000 -0.858401
v -0.661301 0.000000 -0.905828
v -0.621694 0.000000 -0.945435
v -0.574267 0.000000 -0.975235
v -0.521398 0.000000 -0.993735
v 0.465926 0.000000 -1.000006
v 0.715871 0.000000 -0.750061
v 0.521544 0.000000 -0.993740
v 0.574373 0.000000 -0.975254
v 0.621764 0.000000 -0.945476
v 0.661341 0.000000 -0.905899
v 0.691119 0.000000 -0.858508
v 0.709604 0.000000 -0.805679
v 0.465843 1.000093 0.999994
v 0.715871 1.000093 0.749965
v 0.521479 1.000093 0.993725
v 0.574326 1.000093 0.975233
v 0.621733 1.000093 0.945445
v 0.661323 1.000093 0.905855
v 0.691110 1.000093 0.858449
v 0.709602 1.000093 0.805602
v -0.465997 1.000093 0.999994
v -0.715873 1.000093 0.750118
v -0.521600 1.000093 0.993729
v -0.574414 1.000093 0.975248
v -0.621792 1.000093 0.945479
v -0.661358 1.000093 0.905913
v -0.691127 1.000093 0.858535
v -0.709608 1.000093 0.805721
v -0.715873 1.000093 -0.749871
v -0.465737 1.000093 -1.000006
v -0.709601 1.000093 -0.805531
v -0.691102 1.000093 -0.858401
v -0.661301 1.000093 -0.905828
v -0.621694 1.000093 -0.945435
v -0.574267 1.000093 -0.975235
v -0.521398 1.000093 -0.993735
v 0.465926 1.000093 -1.000006
v 0.715871 1.000093 -0.750061
v 0.521544 1.000093 -0.993740
v 0.574373 1.000093 -0.975254
v 0.621764 1.000093 -0.945476
v 0.661341 1.000093 -0.905899
v 0.691119 1.000093 -0.858508
v 0.709604 1.000093 -0.805679
vn 1.0000 -0.0000 -0.0000
vn -0.7071 -0.0000 0.7071
vn 0.9937 -0.0000 -0.1120
vn -0.5320 -0.0000 0.8467
vn 0.9439 -0.0000 -0.3303
vn -0.3303 -0.0000 0.9439
vn 0.8467 -0.0000 -0.5320
vn -0.1120 -0.0000 0.9937
vn 0.1120 -0.0000 0.9937
vn 0.7071 -0.0000 -0.7071
vn -0.0000 -0.0000 1.0000
vn 0.3303 -0.0000 0.9439
vn 0.5320 -0.0000 -0.8467
vn -0.1120 -0.0000 -0.9937
vn 0.5320 -0.0000 0.8467
vn 0.3303 -0.0000 -0.9439
vn -0.3303 -0.0000 -0.9439
vn 0.7071 -0.0000 0.7071
vn 0.1120 -0.0000 -0.9937
vn -0.5320 -0.0000 -0.8467
vn 0.8467 -0.0000 0.5320
vn -0.0000 -0.0000 -1.0000
vn -0.7071 -0.0000 -0.7071
vn 0.9439 -0.0000 0.3303
vn -0.8467 -0.0000 -0.5320
vn 0.9937 -0.0000 0.1120
vn -0.9439 -0.0000 -0.3303
vn -0.9937 -0.0000 0.1120
vn -0.9937 -0.0000 -0.1120
vn -0.9439 -0.0000 0.3303
vn -1.0000 -0.0000 -0.0000
vn -0.8467 -0.0000 0.5320
vt 0.000000 0.124973
vt 0.000000 0.874986
vt 0.952960 0.972743
vt 0.972742 0.952960
vt 0.003133 0.097164
vt 0.929271 0.987627
vt 0.012376 0.070749
vt 0.902864 0.996867
vt 0.027265 0.047053
vt 0.875062 1.000000
vt 0.097196 0.996866
vt 0.125014 1.000000
vt 0.047053 0.027265
vt 0.070772 0.987620
vt 0.070749 0.012376
vt 0.902763 0.003136
vt 0.874932 0.000000
vt 0.047069 0.972726
vt 0.097164 0.003133
vt 0.929197 0.012386
vt 0.027274 0.952931
vt 0.124973 0.000000
vt 0.952911 0.027286
vt 0.012380 0.929227
vt 0.972714 0.047089
vt 0.003134 0.902804
vt 0.987614 0.070803
vt 0.996864 0.097238
vt 0.996868 0.902864
vt 1.000000 0.875062
vt 1.000000 0.125068
vt 0.987627 0.929271
s 0
usemtl blank
f 26/1/1 34/2/1 2/2/1
f 13/3/2 46/4/2 14/4/2
f 32/5/3 58/1/3 26/1/3
f 12/6/4 45/3/4 13/3/4
f 31/7/5 64/5/5 32/5/5
f 11/8/6 44/6/6 12/6/6
f 30/9/7 63/7/7 31/7/7
f 9/10/8 43/8/8 11/8/8
f 3/11/9 33/12/9 1/12/9
f 29/13/10 62/9/10 30/9/10
f 1/12/11 41/10/11 9/10/11
f 4/14/12 35/11/12 3/11/12
f 28/15/13 61/13/13 29/13/13
f 24/16/14 50/17/14 18/17/14
f 5/18/15 36/14/15 4/14/15
f 27/19/16 60/15/16 28/15/16
f 23/20/17 56/16/17 24/16/17
f 6/21/18 37/18/18 5/18/18
f 25/22/19 59/19/19 27/19/19
f 22/23/20 55/20/20 23/20/20
f 7/24/21 38/21/21 6/21/21
f 18/17/22 57/22/22 25/22/22
f 21/25/23 54/23/23 22/23/23
f 8/26/24 39/24/24 7/24/24
f 20/27/25 53/25/25 21/25/25
f 2/2/26 40/26/26 8/26/26
f 19/28/27 52/27/27 20/27/27
f 16/29/28 42/30/28 10/30/28
f 17/31/29 51/28/29 19/28/29
f 15/32/30 48/29/30 16/29/30
f 10/30/31 49/31/31 17/31/31
f 14/4/32 47/32/32 15/32/32
f 26/1/1 58/1/1 34/2/1
f 13/3/2 45/3/2 46/4/2
f 32/5/3 64/5/3 58/1/3
f 12/6/4 44/6/4 45/3/4
f 31/7/5 63/7/5 64/5/5
f 11/8/6 43/8/6 44/6/6
f 30/9/7 62/9/7 63/7/7
f 9/10/8 41/10/8 43/8/8
f 3/11/9 35/11/9 33/12/9
f 29/13/10 61/13/10 62/9/10
f 1/12/11 33/12/11 41/10/11
f 4/14/12 36/14/12 35/11/12
f 28/15/13 60/15/13 61/13/13
f 24/16/14 56/16/14 50/17/14
f 5/18/15 37/18/15 36/14/15
f 27/19/16 59/19/16 60/15/16
f 23/20/17 55/20/17 56/16/17
f 6/21/18 38/21/18 37/18/18
f 25/22/19 57/22/19 59/19/19
f 22/23/20 54/23/20 55/20/20
f 7/24/21 39/24/21 38/21/21
f 18/17/22 50/17/22 57/22/22
f 21/25/23 53/25/23 54/23/23
f 8/26/24 40/26/24 39/24/24
f 20/27/25 52/27/25 53/25/25
f 2/2/26 34/2/26 40/26/26
f 19/28/27 51/28/27 52/27/27
f 16/29/28 48/29/28 42/30/28
f 17/31/29 49/31/29 51/28/29
f 15/32/30 47/32/30 48/29/30
f 10/30/31 42/30/31 49/31/31
f 14/4/32 46/4/32 47/32/32
